ffmpeg started on 2025-06-06 at 19:26:55
Report written to "D:\Convert\FFMetrics\reports\ssim_report-6.txt"
Log level: 32
Command line:
ffmpeg -hide_banner -nostdin -i "G:\\\xc0\xed\xe8\xec\xe5\\\xce\xed\xe3\xee\xe8\xed\xe3\xe8\\!_36_\xce\xf1\xe5\xed\xfc_2024\\DreamCast\\\xd0\xee\xed \xca\xe0\xec\xee\xed\xee\xf5\xe0\xf1\xe8 - \xcd\xe5\xe2\xec\xe5\xed\xff\xe5\xec\xfb\xe9 \xe4\xe5\xf2\xe5\xea\xf2\xe8\xe2\\\xd2\xc2-1\\[DC] Kamonohashi Ron no Kindan Suiri - 09_Telegram_HEVC.mkv" -i "G:\\\xc0\xed\xe8\xec\xe5\\\xce\xed\xe3\xee\xe8\xed\xe3\xe8\\!_36_\xce\xf1\xe5\xed\xfc_2024\\DreamCast\\\xd0\xee\xed \xca\xe0\xec\xee\xed\xee\xf5\xe0\xf1\xe8 - \xcd\xe5\xe2\xec\xe5\xed\xff\xe5\xec\xfb\xe9 \xe4\xe5\xf2\xe5\xea\xf2\xe8\xe2\\\xd2\xc2-1\\[DC] Kamonohashi Ron no Kindan Suiri - 09_Telegram.mp4" -lavfi "[0:v]settb=AVTB,setpts=PTS-STARTPTS,format=pix_fmts=yuv420p10,fps=24000/1001,scale=1920:1080:flags=bicubic[main];[1:v]settb=AVTB,setpts=PTS-STARTPTS,format=pix_fmts=yuv420p,fps=24000/1001,scale=1920:1080:flags=bicubic[ref];[main][ref]ssim=eof_action=endall:stats_file='D\\:/Convert/FFMetrics/logs/ssim_logfile-6.txt'" -f null -
Input #0, matroska,webm, from 'G:\Аниме\Онгоинги\!_36_Осень_2024\DreamCast\Рон Камонохаси - Невменяемый детектив\ТВ-1\[DC] Kamonohashi Ron no Kindan Suiri - 09_Telegram_HEVC.mkv':
  Metadata:
    COMPATIBLE_BRANDS: isomiso2avc1mp41
    MAJOR_BRAND     : isom
    MINOR_VERSION   : 512
    ENCODER         : Lavf61.7.100
  Duration: 00:23:44.09, start: -0.021000, bitrate: 773 kb/s
  Stream #0:0: Video: hevc (Main 10), yuv420p10le(tv, bt709, progressive), 1920x1080 [SAR 1:1 DAR 16:9], 23.98 fps, 23.98 tbr, 1k tbn (default)
      Metadata:
        HANDLER_NAME    : VideoHandler
        VENDOR_ID       : [0][0][0][0]
        ENCODER         : Lavc61.19.100 libx265
        BPS             : 574756
        DURATION        : 00:23:43.922708333
        NUMBER_OF_FRAMES: 34140
        NUMBER_OF_BYTES : 102300976
        _STATISTICS_WRITING_APP: mkvpropedit v66.0.0 ('Josie') 64-bit
        _STATISTICS_WRITING_DATE_UTC: 2025-06-03 15:31:54
        _STATISTICS_TAGS: BPS DURATION NUMBER_OF_FRAMES NUMBER_OF_BYTES
  Stream #0:1: Audio: aac (LC), 48000 Hz, stereo, fltp (default)
      Metadata:
        HANDLER_NAME    : SoundHandler
        VENDOR_ID       : [0][0][0][0]
        ENCODER         : Lavc61.19.100 aac
        BPS             : 194535
        DURATION        : 00:23:44.085000000
        NUMBER_OF_FRAMES: 66755
        NUMBER_OF_BYTES : 34629374
        _STATISTICS_WRITING_APP: mkvpropedit v66.0.0 ('Josie') 64-bit
        _STATISTICS_WRITING_DATE_UTC: 2025-06-03 15:31:54
        _STATISTICS_TAGS: BPS DURATION NUMBER_OF_FRAMES NUMBER_OF_BYTES
Input #1, mov,mp4,m4a,3gp,3g2,mj2, from 'G:\Аниме\Онгоинги\!_36_Осень_2024\DreamCast\Рон Камонохаси - Невменяемый детектив\ТВ-1\[DC] Kamonohashi Ron no Kindan Suiri - 09_Telegram.mp4':
  Metadata:
    major_brand     : isom
    minor_version   : 512
    compatible_brands: isomiso2avc1mp41
    encoder         : Lavf60.18.100
  Duration: 00:23:44.03, start: 0.000000, bitrate: 3464 kb/s
  Stream #1:0[0x1](und): Video: h264 (High) (avc1 / 0x31637661), yuv420p(tv, bt709, progressive), 1920x1080 [SAR 1:1 DAR 16:9], 3316 kb/s, 23.98 fps, 23.98 tbr, 24k tbn (default)
      Metadata:
        handler_name    : VideoHandler
        vendor_id       : [0][0][0][0]
        encoder         : Lavc60.35.100 h264_qsv
  Stream #1:1[0x2](und): Audio: aac (HE-AACv2) (mp4a / 0x6134706D), 48000 Hz, stereo, fltp, 144 kb/s (default)
      Metadata:
        handler_name    : SoundHandler
        vendor_id       : [0][0][0][0]
Stream mapping:
  Stream #0:0 (hevc) -> settb:default
  Stream #1:0 (h264) -> settb:default
  ssim:default -> Stream #0:0 (wrapped_avframe)
  Stream #0:1 -> #0:1 (aac (native) -> pcm_s16le (native))
Output #0, null, to 'pipe:':
  Metadata:
    COMPATIBLE_BRANDS: isomiso2avc1mp41
    MAJOR_BRAND     : isom
    MINOR_VERSION   : 512
    encoder         : Lavf61.7.100
  Stream #0:0: Video: wrapped_avframe, yuv420p10le(tv, bt709, progressive), 1920x1080 [SAR 1:1 DAR 16:9], q=2-31, 200 kb/s, 23.98 fps, 23.98 tbn
      Metadata:
        encoder         : Lavc61.19.100 wrapped_avframe
  Stream #0:1: Audio: pcm_s16le, 48000 Hz, stereo, s16, 1536 kb/s (default)
      Metadata:
        HANDLER_NAME    : SoundHandler
        VENDOR_ID       : [0][0][0][0]
        _STATISTICS_TAGS: BPS DURATION NUMBER_OF_FRAMES NUMBER_OF_BYTES
        BPS             : 194535
        DURATION        : 00:23:44.085000000
        NUMBER_OF_FRAMES: 66755
        NUMBER_OF_BYTES : 34629374
        _STATISTICS_WRITING_APP: mkvpropedit v66.0.0 ('Josie') 64-bit
        _STATISTICS_WRITING_DATE_UTC: 2025-06-03 15:31:54
        encoder         : Lavc61.19.100 pcm_s16le
frame=  185 fps=0.0 q=-0.0 size=N/A time=00:00:07.71 bitrate=N/A speed=14.9x    frame=  402 fps=387 q=-0.0 size=N/A time=00:00:16.76 bitrate=N/A speed=16.1x    frame=  594 fps=384 q=-0.0 size=N/A time=00:00:24.77 bitrate=N/A speed=  16x    frame=  863 fps=416 q=-0.0 size=N/A time=00:00:35.99 bitrate=N/A speed=17.4x    frame= 1071 fps=415 q=-0.0 size=N/A time=00:00:44.66 bitrate=N/A speed=17.3x    frame= 1344 fps=434 q=-0.0 size=N/A time=00:00:56.05 bitrate=N/A speed=18.1x    frame= 1612 fps=445 q=-0.0 size=N/A time=00:01:07.23 bitrate=N/A speed=18.6x    frame= 1863 fps=451 q=-0.0 size=N/A time=00:01:17.70 bitrate=N/A speed=18.8x    frame= 2101 fps=451 q=-0.0 size=N/A time=00:01:27.62 bitrate=N/A speed=18.8x    frame= 2347 fps=454 q=-0.0 size=N/A time=00:01:37.88 bitrate=N/A speed=  19x    frame= 2596 fps=458 q=-0.0 size=N/A time=00:01:48.27 bitrate=N/A speed=19.1x    frame= 2859 fps=461 q=-0.0 size=N/A time=00:01:59.24 bitrate=N/A speed=19.2x    frame= 3122 fps=466 q=-0.0 size=N/A time=00:02:10.21 bitrate=N/A speed=19.4x    frame= 3378 fps=467 q=-0.0 size=N/A time=00:02:20.89 bitrate=N/A speed=19.5x    frame= 3620 fps=468 q=-0.0 size=N/A time=00:02:30.98 bitrate=N/A speed=19.5x    frame= 3855 fps=467 q=-0.0 size=N/A time=00:02:40.78 bitrate=N/A speed=19.5x    frame= 4109 fps=468 q=-0.0 size=N/A time=00:02:51.37 bitrate=N/A speed=19.5x    frame= 4325 fps=466 q=-0.0 size=N/A time=00:03:00.38 bitrate=N/A speed=19.4x    frame= 4544 fps=464 q=-0.0 size=N/A time=00:03:09.52 bitrate=N/A speed=19.3x    frame= 4763 fps=461 q=-0.0 size=N/A time=00:03:18.65 bitrate=N/A speed=19.2x    frame= 4987 fps=460 q=-0.0 size=N/A time=00:03:27.99 bitrate=N/A speed=19.2x    frame= 5266 fps=464 q=-0.0 size=N/A time=00:03:39.63 bitrate=N/A speed=19.3x    frame= 5470 fps=461 q=-0.0 size=N/A time=00:03:48.14 bitrate=N/A speed=19.2x    frame= 5744 fps=464 q=-0.0 size=N/A time=00:03:59.57 bitrate=N/A speed=19.3x    frame= 6012 fps=466 q=-0.0 size=N/A time=00:04:10.75 bitrate=N/A speed=19.4x    frame= 6263 fps=467 q=-0.0 size=N/A time=00:04:21.21 bitrate=N/A speed=19.5x    frame= 6510 fps=467 q=-0.0 size=N/A time=00:04:31.52 bitrate=N/A speed=19.5x    frame= 6740 fps=467 q=-0.0 size=N/A time=00:04:41.11 bitrate=N/A speed=19.5x    frame= 6995 fps=468 q=-0.0 size=N/A time=00:04:51.74 bitrate=N/A speed=19.5x    frame= 7265 fps=469 q=-0.0 size=N/A time=00:05:03.01 bitrate=N/A speed=19.6x    frame= 7513 fps=470 q=-0.0 size=N/A time=00:05:13.35 bitrate=N/A speed=19.6x    frame= 7781 fps=471 q=-0.0 size=N/A time=00:05:24.53 bitrate=N/A speed=19.7x    frame= 8025 fps=472 q=-0.0 size=N/A time=00:05:34.70 bitrate=N/A speed=19.7x    frame= 8283 fps=472 q=-0.0 size=N/A time=00:05:45.47 bitrate=N/A speed=19.7x    frame= 8490 fps=470 q=-0.0 size=N/A time=00:05:54.10 bitrate=N/A speed=19.6x    frame= 8735 fps=470 q=-0.0 size=N/A time=00:06:04.32 bitrate=N/A speed=19.6x    frame= 8993 fps=471 q=-0.0 size=N/A time=00:06:15.08 bitrate=N/A speed=19.7x    frame= 9287 fps=474 q=-0.0 size=N/A time=00:06:27.34 bitrate=N/A speed=19.8x    frame= 9564 fps=476 q=-0.0 size=N/A time=00:06:38.89 bitrate=N/A speed=19.8x    frame= 9857 fps=478 q=-0.0 size=N/A time=00:06:51.11 bitrate=N/A speed=19.9x    frame=10134 fps=479 q=-0.0 size=N/A time=00:07:02.67 bitrate=N/A speed=  20x    frame=10433 fps=481 q=-0.0 size=N/A time=00:07:15.14 bitrate=N/A speed=20.1x    frame=10691 fps=482 q=-0.0 size=N/A time=00:07:25.90 bitrate=N/A speed=20.1x    frame=10963 fps=483 q=-0.0 size=N/A time=00:07:37.24 bitrate=N/A speed=20.1x    frame=11231 fps=484 q=-0.0 size=N/A time=00:07:48.42 bitrate=N/A speed=20.2x    frame=11501 fps=485 q=-0.0 size=N/A time=00:07:59.68 bitrate=N/A speed=20.2x    frame=11771 fps=486 q=-0.0 size=N/A time=00:08:10.94 bitrate=N/A speed=20.3x    frame=12027 fps=486 q=-0.0 size=N/A time=00:08:21.62 bitrate=N/A speed=20.3x    frame=12284 fps=486 q=-0.0 size=N/A time=00:08:32.34 bitrate=N/A speed=20.3x    frame=12548 fps=487 q=-0.0 size=N/A time=00:08:43.35 bitrate=N/A speed=20.3x    frame=12820 fps=487 q=-0.0 size=N/A time=00:08:54.70 bitrate=N/A speed=20.3x    frame=13102 fps=488 q=-0.0 size=N/A time=00:09:06.46 bitrate=N/A speed=20.4x    frame=13371 fps=489 q=-0.0 size=N/A time=00:09:17.68 bitrate=N/A speed=20.4x    frame=13657 fps=490 q=-0.0 size=N/A time=00:09:29.61 bitrate=N/A speed=20.5x    frame=13908 fps=490 q=-0.0 size=N/A time=00:09:40.07 bitrate=N/A speed=20.5x    frame=14177 fps=491 q=-0.0 size=N/A time=00:09:51.29 bitrate=N/A speed=20.5x    frame=14470 fps=492 q=-0.0 size=N/A time=00:10:03.51 bitrate=N/A speed=20.5x    frame=14705 fps=492 q=-0.0 size=N/A time=00:10:13.32 bitrate=N/A speed=20.5x    frame=14950 fps=491 q=-0.0 size=N/A time=00:10:23.53 bitrate=N/A speed=20.5x    frame=15234 fps=492 q=-0.0 size=N/A time=00:10:35.38 bitrate=N/A speed=20.5x    frame=15525 fps=493 q=-0.0 size=N/A time=00:10:47.52 bitrate=N/A speed=20.6x    frame=15792 fps=494 q=-0.0 size=N/A time=00:10:58.65 bitrate=N/A speed=20.6x    frame=16050 fps=494 q=-0.0 size=N/A time=00:11:09.41 bitrate=N/A speed=20.6x    frame=16325 fps=495 q=-0.0 size=N/A time=00:11:20.88 bitrate=N/A speed=20.6x    frame=16591 fps=495 q=-0.0 size=N/A time=00:11:31.98 bitrate=N/A speed=20.6x    frame=16855 fps=495 q=-0.0 size=N/A time=00:11:42.99 bitrate=N/A speed=20.7x    frame=17101 fps=495 q=-0.0 size=N/A time=00:11:53.25 bitrate=N/A speed=20.6x    frame=17338 fps=494 q=-0.0 size=N/A time=00:12:03.13 bitrate=N/A speed=20.6x    frame=17596 fps=495 q=-0.0 size=N/A time=00:12:13.89 bitrate=N/A speed=20.6x    frame=17843 fps=494 q=-0.0 size=N/A time=00:12:24.20 bitrate=N/A speed=20.6x    frame=18087 fps=494 q=-0.0 size=N/A time=00:12:34.37 bitrate=N/A speed=20.6x    frame=18344 fps=494 q=-0.0 size=N/A time=00:12:45.09 bitrate=N/A speed=20.6x    frame=18591 fps=494 q=-0.0 size=N/A time=00:12:55.39 bitrate=N/A speed=20.6x    frame=18848 fps=494 q=-0.0 size=N/A time=00:13:06.11 bitrate=N/A speed=20.6x    frame=19121 fps=494 q=-0.0 size=N/A time=00:13:17.50 bitrate=N/A speed=20.6x    frame=19393 fps=495 q=-0.0 size=N/A time=00:13:28.84 bitrate=N/A speed=20.6x    frame=19669 fps=495 q=-0.0 size=N/A time=00:13:40.36 bitrate=N/A speed=20.7x    frame=19925 fps=495 q=-0.0 size=N/A time=00:13:51.03 bitrate=N/A speed=20.7x    frame=20202 fps=496 q=-0.0 size=N/A time=00:14:02.59 bitrate=N/A speed=20.7x    frame=20468 fps=496 q=-0.0 size=N/A time=00:14:13.68 bitrate=N/A speed=20.7x    frame=20735 fps=496 q=-0.0 size=N/A time=00:14:24.82 bitrate=N/A speed=20.7x    frame=21003 fps=497 q=-0.0 size=N/A time=00:14:36.00 bitrate=N/A speed=20.7x    frame=21278 fps=497 q=-0.0 size=N/A time=00:14:47.46 bitrate=N/A speed=20.7x    frame=21519 fps=497 q=-0.0 size=N/A time=00:14:57.52 bitrate=N/A speed=20.7x    frame=21795 fps=497 q=-0.0 size=N/A time=00:15:09.03 bitrate=N/A speed=20.7x    frame=22041 fps=497 q=-0.0 size=N/A time=00:15:19.29 bitrate=N/A speed=20.7x    frame=22318 fps=498 q=-0.0 size=N/A time=00:15:30.84 bitrate=N/A speed=20.8x    frame=22595 fps=498 q=-0.0 size=N/A time=00:15:42.39 bitrate=N/A speed=20.8x    frame=22802 fps=497 q=-0.0 size=N/A time=00:15:51.03 bitrate=N/A speed=20.7x    frame=23071 fps=497 q=-0.0 size=N/A time=00:16:02.25 bitrate=N/A speed=20.7x    frame=23364 fps=498 q=-0.0 size=N/A time=00:16:14.47 bitrate=N/A speed=20.8x    frame=23627 fps=498 q=-0.0 size=N/A time=00:16:25.44 bitrate=N/A speed=20.8x    frame=23898 fps=498 q=-0.0 size=N/A time=00:16:36.74 bitrate=N/A speed=20.8x    frame=24171 fps=499 q=-0.0 size=N/A time=00:16:48.13 bitrate=N/A speed=20.8x    frame=24446 fps=499 q=-0.0 size=N/A time=00:16:59.60 bitrate=N/A speed=20.8x    frame=24713 fps=499 q=-0.0 size=N/A time=00:17:10.73 bitrate=N/A speed=20.8x    frame=24984 fps=500 q=-0.0 size=N/A time=00:17:22.04 bitrate=N/A speed=20.8x    frame=25254 fps=500 q=-0.0 size=N/A time=00:17:33.30 bitrate=N/A speed=20.8x    frame=25508 fps=500 q=-0.0 size=N/A time=00:17:43.89 bitrate=N/A speed=20.8x    frame=25759 fps=499 q=-0.0 size=N/A time=00:17:54.36 bitrate=N/A speed=20.8x    frame=26012 fps=499 q=-0.0 size=N/A time=00:18:04.91 bitrate=N/A speed=20.8x    frame=26224 fps=499 q=-0.0 size=N/A time=00:18:13.75 bitrate=N/A speed=20.8x    frame=26471 fps=498 q=-0.0 size=N/A time=00:18:24.06 bitrate=N/A speed=20.8x    frame=26724 fps=498 q=-0.0 size=N/A time=00:18:34.61 bitrate=N/A speed=20.8x    frame=26948 fps=498 q=-0.0 size=N/A time=00:18:43.95 bitrate=N/A speed=20.8x    frame=27203 fps=498 q=-0.0 size=N/A time=00:18:54.59 bitrate=N/A speed=20.8x    frame=27454 fps=498 q=-0.0 size=N/A time=00:19:05.06 bitrate=N/A speed=20.8x    frame=27730 fps=498 q=-0.0 size=N/A time=00:19:16.57 bitrate=N/A speed=20.8x    frame=28007 fps=498 q=-0.0 size=N/A time=00:19:28.12 bitrate=N/A speed=20.8x    frame=28289 fps=499 q=-0.0 size=N/A time=00:19:39.88 bitrate=N/A speed=20.8x    frame=28553 fps=499 q=-0.0 size=N/A time=00:19:50.89 bitrate=N/A speed=20.8x    frame=28777 fps=498 q=-0.0 size=N/A time=00:20:00.24 bitrate=N/A speed=20.8x    frame=28972 fps=497 q=-0.0 size=N/A time=00:20:08.37 bitrate=N/A speed=20.7x    frame=29245 fps=497 q=-0.0 size=N/A time=00:20:19.76 bitrate=N/A speed=20.7x    frame=29523 fps=498 q=-0.0 size=N/A time=00:20:31.35 bitrate=N/A speed=20.8x    frame=29775 fps=498 q=-0.0 size=N/A time=00:20:41.86 bitrate=N/A speed=20.8x    frame=30048 fps=498 q=-0.0 size=N/A time=00:20:53.25 bitrate=N/A speed=20.8x    frame=30333 fps=499 q=-0.0 size=N/A time=00:21:05.13 bitrate=N/A speed=20.8x    frame=30601 fps=499 q=-0.0 size=N/A time=00:21:16.31 bitrate=N/A speed=20.8x    frame=30831 fps=498 q=-0.0 size=N/A time=00:21:25.90 bitrate=N/A speed=20.8x    frame=31039 fps=497 q=-0.0 size=N/A time=00:21:34.58 bitrate=N/A speed=20.7x    frame=31323 fps=498 q=-0.0 size=N/A time=00:21:46.43 bitrate=N/A speed=20.8x    frame=31580 fps=498 q=-0.0 size=N/A time=00:21:57.14 bitrate=N/A speed=20.8x    frame=31852 fps=498 q=-0.0 size=N/A time=00:22:08.49 bitrate=N/A speed=20.8x    frame=32115 fps=498 q=-0.0 size=N/A time=00:22:19.46 bitrate=N/A speed=20.8x    frame=32389 fps=499 q=-0.0 size=N/A time=00:22:30.89 bitrate=N/A speed=20.8x    frame=32663 fps=499 q=-0.0 size=N/A time=00:22:42.31 bitrate=N/A speed=20.8x    frame=32924 fps=499 q=-0.0 size=N/A time=00:22:53.20 bitrate=N/A speed=20.8x    frame=33212 fps=499 q=-0.0 size=N/A time=00:23:05.21 bitrate=N/A speed=20.8x    frame=33505 fps=500 q=-0.0 size=N/A time=00:23:17.43 bitrate=N/A speed=20.8x    frame=33764 fps=500 q=-0.0 size=N/A time=00:23:28.24 bitrate=N/A speed=20.8x    frame=34025 fps=500 q=-0.0 size=N/A time=00:23:39.12 bitrate=N/A speed=20.8x    [Parsed_ssim_10 @ 000001d4acbce040] SSIM Y:0.995786 (23.753256) U:0.994063 (22.264418) V:0.995444 (23.414547) All:0.995442 (23.412305)
[out#0/null @ 000001d4ac365580] video:14670KiB audio:267020KiB subtitle:0KiB other streams:0KiB global headers:0KiB muxing overhead: unknown
frame=34140 fps=500 q=-0.0 Lsize=N/A time=00:23:43.92 bitrate=N/A speed=20.9x    
